<?xml version="1.0" standalone="no"?>
<!DOCTYPE svg PUBLIC "-//W3C//DTD SVG 20010904//EN"
 "http://www.w3.org/TR/2001/REC-SVG-20010904/DTD/svg10.dtd">
<svg version="1.0" xmlns="http://www.w3.org/2000/svg"
 width="2400.000000pt" height="1014.000000pt" viewBox="0 0 2400.000000 1014.000000"
 preserveAspectRatio="xMidYMid meet">

<g transform="translate(0.000000,1014.000000) scale(0.100000,-0.100000)"
fill="#000000" stroke="none">
<path d="M0 5070 l0 -5070 12000 0 12000 0 0 5070 0 5070 -12000 0 -12000 0 0
-5070z m9777 2694 c26 -9 67 -30 91 -46 l42 -29 64 31 c118 58 242 49 339 -25
l47 -36 33 25 c54 41 105 58 178 58 79 0 137 -23 197 -76 l40 -36 30 29 c55
50 99 66 187 66 94 -1 145 -22 196 -84 l33 -39 39 39 c92 92 287 90 374 -3 41
-43 57 -97 57 -193 0 -81 -3 -95 -28 -142 -34 -62 -60 -81 -141 -104 -33 -10
-50 -18 -37 -18 35 -1 103 -39 147 -82 l40 -38 33 33 c52 54 96 71 182 71 91
0 141 -23 196 -89 l37 -45 43 44 c75 77 203 95 299 42 23 -13 54 -44 75 -75
l34 -52 14 27 c38 75 104 112 197 113 165 0 231 -71 224 -242 -3 -70 -8 -91
-29 -121 -37 -55 -97 -81 -190 -81 -101 0 -156 30 -193 103 l-24 50 -19 -41
c-36 -81 -125 -138 -214 -138 -74 0 -156 44 -196 105 l-16 24 -49 -53 c-27
-29 -61 -58 -76 -64 -16 -5 -37 -13 -48 -17 -16 -6 -11 -10 28 -21 30 -9 64
-31 94 -59 l46 -44 35 31 c55 48 97 62 187 62 180 0 264 -93 253 -284 -7 -125
-60 -195 -167 -222 l-44 -11 53 -14 c114 -29 172 -114 173 -252 1 -42 -5 -94
-12 -115 -16 -45 -81 -120 -125 -143 l-30 -15 30 -16 c108 -55 158 -139 158
-262 0 -109 -31 -171 -120 -238 -27 -20 -28 -23 -11 -33 42 -25 85 -71 113
-121 26 -48 29 -61 29 -148 0 -84 -3 -101 -27 -146 -15 -28 -42 -64 -61 -81
l-35 -31 42 -34 c22 -19 55 -59 71 -89 28 -50 30 -61 30 -159 0 -115 -12 -152
-76 -225 l-31 -35 41 -41 c71 -73 86 -116 86 -249 0 -99 -3 -122 -23 -165 -44
-95 -117 -146 -240 -166 -90 -15 -168 -5 -239 31 l-56 29 -41 -29 c-141 -97
-385 -71 -490 51 -53 63 -71 125 -71 249 0 93 3 112 26 161 15 31 43 74 63 96
l36 40 -25 23 c-14 13 -38 49 -53 79 -24 49 -27 68 -27 151 0 82 4 103 26 151
14 30 43 72 64 92 l37 36 -40 46 c-111 126 -100 330 23 450 l47 45 -40 44
c-60 66 -75 100 -80 192 -3 59 0 95 12 132 18 54 77 128 119 151 l25 13 -57
57 c-43 42 -61 69 -74 110 -46 145 8 292 131 355 l45 23 -46 27 c-50 29 -86
70 -108 126 -18 44 -18 183 0 233 26 75 113 146 179 147 31 0 19 17 -18 25
-16 3 -48 23 -72 44 l-42 38 -43 -42 c-51 -51 -114 -75 -197 -75 -66 0 -141
29 -184 70 l-23 21 -36 -32 c-102 -89 -253 -101 -367 -29 l-47 30 -57 -41
c-105 -73 -239 -77 -345 -9 l-46 29 -51 -34 c-68 -46 -118 -58 -215 -53 -64 3
-91 10 -132 32 l-52 29 -48 -31 c-74 -46 -113 -55 -226 -50 -156 6 -231 50
-286 168 -23 49 -26 67 -26 165 1 126 15 169 87 250 l40 45 -35 40 c-48 52
-63 84 -76 156 -20 109 12 243 73 307 32 32 91 64 143 76 63 15 169 12 220 -5z
m-6529 -19 c28 -9 72 -31 97 -50 l46 -35 32 24 c54 41 105 58 178 58 80 0 137
-23 198 -77 l41 -37 45 40 c54 48 115 67 193 59 73 -6 130 -35 174 -86 l34
-40 38 40 c99 101 301 84 382 -32 l27 -39 36 39 c46 49 90 71 155 78 109 11
194 -35 244 -132 12 -22 21 -33 22 -24 0 29 59 98 99 119 59 30 173 28 232 -3
79 -42 118 -161 90 -273 -26 -103 -86 -143 -211 -144 -109 0 -153 25 -201 113
l-16 29 -13 -32 c-37 -88 -109 -133 -215 -133 -95 0 -156 29 -199 96 l-18 27
-29 -39 c-30 -42 -93 -84 -144 -96 -30 -7 -30 -7 19 -23 29 -9 69 -35 100 -63
l52 -47 39 39 c70 71 198 88 293 40 23 -11 58 -41 78 -66 l38 -45 42 45 c32
33 57 48 99 61 113 32 214 -2 275 -94 l34 -52 14 27 c39 77 104 112 205 113
150 0 216 -67 217 -222 0 -90 -10 -121 -52 -165 -41 -42 -86 -57 -174 -57 -95
1 -151 32 -186 102 l-24 49 -29 -54 c-49 -95 -150 -139 -262 -113 -47 10 -65
21 -109 65 l-53 53 -22 -32 c-49 -70 -117 -105 -208 -106 -75 0 -125 17 -174
61 l-42 37 -37 -39 c-51 -53 -92 -71 -170 -77 -86 -6 -146 11 -198 55 l-40 35
-37 -33 c-102 -89 -253 -101 -367 -28 l-47 29 -32 -24 c-119 -89 -256 -98
-373 -25 -33 22 -50 27 -57 20 -8 -8 1 -23 30 -54 73 -76 88 -116 88 -242 0
-96 -3 -116 -24 -155 -13 -25 -30 -53 -39 -63 -14 -15 -10 -15 31 3 103 46
240 33 332 -30 l41 -28 68 34 c59 29 78 34 140 34 90 0 132 -12 194 -55 l50
-34 59 32 c54 30 65 32 153 32 86 0 100 -3 147 -29 29 -16 60 -37 68 -46 15
-17 19 -16 72 16 118 71 281 56 367 -35 l29 -30 35 31 c54 46 98 62 182 62 90
1 153 -26 201 -83 l31 -36 42 41 c47 48 94 64 181 64 79 0 131 -25 185 -88
l44 -51 24 36 c32 47 110 83 182 83 106 0 173 -35 216 -114 l26 -48 22 38 c50
88 152 129 261 105 112 -25 161 -102 153 -239 -8 -134 -62 -195 -186 -208
-103 -11 -190 33 -234 120 l-15 29 -24 -48 c-41 -81 -105 -115 -217 -115 -82
0 -143 27 -182 82 l-28 39 -24 -33 c-35 -49 -68 -75 -123 -97 -28 -11 -41 -20
-29 -20 35 -1 123 -52 149 -85 l25 -33 44 43 c65 62 161 81 260 52 39 -12 129
-87 137 -116 3 -9 23 4 54 36 59 59 110 77 202 69 87 -7 144 -41 175 -107 13
-27 26 -49 29 -50 3 0 13 15 22 34 64 134 328 140 393 9 14 -29 19 -60 19
-129 0 -82 -3 -94 -27 -132 -16 -23 -43 -49 -60 -58 -49 -26 -168 -31 -222
-10 -46 18 -116 85 -116 111 0 26 -16 16 -28 -18 -15 -42 -67 -96 -109 -113
-18 -8 -63 -14 -100 -14 -83 0 -145 26 -189 77 l-31 36 -49 -51 c-39 -40 -61
-54 -108 -67 -100 -29 -193 -9 -263 57 l-31 30 -33 -36 c-43 -50 -97 -76 -172
-83 -77 -7 -131 7 -197 52 l-52 35 -27 -26 c-14 -15 -48 -37 -76 -50 -90 -42
-237 -28 -309 30 l-30 23 -49 -37 c-59 -45 -111 -62 -188 -62 -69 0 -120 15
-176 52 l-41 28 -23 -24 c-13 -14 -47 -36 -77 -51 -96 -47 -253 -31 -323 33
-16 14 -21 13 -60 -15 -103 -75 -293 -81 -381 -11 l-25 19 -39 -28 c-95 -70
-247 -81 -359 -26 -56 27 -59 27 -84 11 -110 -72 -278 -82 -411 -25 -140 60
-218 252 -176 432 9 38 16 70 16 72 0 2 -43 4 -95 4 -254 0 -376 119 -377 369
-1 101 19 163 77 242 l37 50 -23 31 c-46 65 -69 139 -69 226 0 101 24 172 80
235 l39 45 -39 51 c-21 29 -44 69 -52 89 -17 49 -17 205 0 263 40 135 155 210
324 210 78 0 145 -20 206 -62 61 -42 78 -23 27 29 -74 75 -101 169 -84 288 14
103 57 169 136 209 73 37 187 46 271 21z m13845 1 c26 -8 69 -31 97 -51 l51
-37 22 20 c42 39 114 64 187 64 80 0 138 -22 197 -76 l40 -36 19 21 c10 12 39
33 64 48 39 23 56 26 130 26 75 0 91 -3 132 -27 25 -16 60 -44 76 -63 l29 -36
16 25 c9 14 38 38 64 53 42 24 58 28 128 28 96 0 145 -22 201 -90 l38 -45 29
35 c47 57 100 80 187 80 105 0 170 -36 212 -119 l20 -39 28 51 c39 67 90 92
188 92 84 0 116 -10 159 -52 42 -41 57 -86 57 -175 -1 -148 -67 -213 -217
-213 -111 0 -174 37 -205 120 -8 20 -10 18 -33 -26 -47 -92 -155 -138 -265
-114 -59 14 -107 42 -135 81 -25 35 -32 36 -49 4 -19 -36 -76 -76 -135 -96
-31 -11 -41 -18 -27 -18 35 -1 103 -39 148 -83 l41 -39 16 25 c9 14 38 38 64
53 42 24 59 28 128 28 110 0 155 -26 232 -134 2 -3 17 12 34 32 48 58 101 81
189 81 65 1 82 -3 122 -27 46 -27 98 -88 98 -114 0 -22 18 -14 24 10 8 33 73
94 114 108 20 7 67 10 112 7 135 -8 190 -63 198 -198 5 -90 -7 -137 -50 -185
-37 -43 -85 -59 -173 -59 -53 0 -81 6 -112 22 -41 21 -93 83 -93 109 0 23 -18
14 -24 -13 -4 -14 -28 -47 -55 -74 -39 -38 -59 -50 -103 -60 -32 -7 -75 -10
-100 -6 -56 8 -130 54 -153 94 l-18 30 -57 -58 c-66 -68 -111 -85 -212 -78
-72 6 -148 41 -168 79 -11 19 -14 17 -64 -29 -61 -55 -107 -72 -195 -72 -70 0
-116 16 -170 60 l-38 29 -23 -25 c-32 -33 -114 -71 -171 -79 -63 -9 -147 10
-204 46 l-48 31 -26 -21 c-114 -92 -251 -105 -367 -35 -76 46 -93 31 -35 -31
69 -75 86 -123 86 -240 0 -89 -3 -106 -27 -156 -15 -30 -39 -66 -52 -78 l-25
-24 34 -40 c46 -54 74 -112 85 -180 17 -104 -17 -232 -75 -287 l-24 -23 34
-42 c60 -72 88 -148 89 -235 0 -90 -12 -137 -58 -213 l-35 -57 25 -29 c47 -56
77 -140 82 -226 2 -44 0 -96 -6 -116 l-10 -36 82 -5 c83 -6 160 -31 198 -65
16 -15 23 -14 80 13 54 24 76 28 154 28 86 1 95 -1 166 -37 l74 -38 54 28 c43
22 70 29 135 31 98 5 148 -8 213 -52 48 -32 50 -32 73 -16 98 71 297 64 392
-13 l29 -23 58 29 c110 54 237 47 337 -18 l51 -34 72 37 c63 32 80 36 143 36
78 0 138 -21 200 -68 l34 -26 67 35 c61 32 75 35 149 35 92 0 140 -17 199 -69
l37 -32 44 34 c116 89 304 71 377 -36 l24 -35 44 38 c72 64 159 84 260 58 33
-8 61 -26 101 -64 l54 -54 34 39 c47 56 101 74 205 70 72 -3 91 -8 126 -32 51
-33 80 -88 88 -165 14 -134 -39 -237 -138 -267 -120 -35 -239 -5 -293 75 l-18
27 -56 -57 c-37 -37 -68 -60 -90 -65 -39 -8 -32 -17 29 -34 56 -16 121 -81
138 -138 15 -49 16 -184 2 -234 -17 -62 -51 -102 -113 -133 -50 -25 -70 -29
-140 -29 -92 -1 -154 20 -196 66 l-24 27 -38 -35 c-108 -97 -251 -109 -367
-31 l-48 32 -44 -33 c-106 -78 -271 -84 -370 -13 l-31 22 -52 -35 c-69 -47
-119 -60 -209 -56 -60 3 -88 11 -137 36 l-61 32 -50 -34 c-97 -65 -254 -69
-358 -8 l-44 25 -21 -21 c-83 -77 -259 -90 -385 -30 -40 20 -44 20 -68 4 -89
-58 -231 -71 -349 -31 l-70 24 -65 -31 c-61 -30 -71 -32 -175 -32 -92 0 -118
4 -158 22 l-47 22 -49 -24 c-100 -50 -241 -57 -347 -17 l-49 18 -65 -30 c-60
-29 -73 -31 -175 -31 -89 1 -120 5 -165 23 -111 44 -209 142 -252 252 -16 43
-21 78 -22 157 l-1 103 -35 0 c-52 0 -146 27 -203 57 -61 34 -137 116 -171
186 -67 136 -56 320 27 443 l24 34 -36 72 c-35 70 -36 75 -36 187 0 105 3 121
27 174 15 32 36 69 47 83 l19 24 -36 70 c-30 59 -36 82 -40 153 -6 115 11 184
63 262 36 54 40 66 29 76 -8 6 -28 40 -45 76 -61 128 -46 278 40 389 l39 52
-29 43 c-43 65 -63 134 -63 219 -1 92 20 157 74 228 l40 52 -34 48 c-53 73
-69 136 -64 245 7 147 61 239 172 289 43 19 68 23 161 23 116 0 149 -10 227
-68 21 -15 31 -18 39 -10 9 9 2 20 -24 43 -20 17 -48 55 -62 85 -66 133 -29
332 73 400 76 50 214 68 305 41z m-11106 -133 c48 -38 66 -74 71 -143 8 -111
-40 -196 -123 -219 -92 -25 -203 -4 -248 47 -64 72 -61 236 6 303 38 39 77 49
174 45 75 -2 86 -5 120 -33z m6924 26 c75 -26 119 -96 119 -194 0 -136 -72
-204 -215 -204 -141 -1 -215 84 -202 232 11 121 73 177 197 177 37 0 82 -5
101 -11z m6899 -11 c25 -13 55 -38 67 -56 28 -43 39 -127 23 -192 -24 -101
-101 -147 -232 -138 -125 9 -177 69 -178 203 0 141 64 205 205 205 54 0 82 -5
115 -22z m-13445 1 c86 -23 137 -116 121 -221 -14 -95 -66 -138 -176 -145 -54
-4 -73 0 -109 19 -61 31 -82 63 -88 134 -10 109 26 182 102 209 49 17 97 18
150 4z m7014 -15 c41 -28 59 -55 72 -110 22 -95 -8 -186 -73 -221 -24 -13 -55
-18 -115 -18 -76 0 -84 2 -119 31 -43 34 -62 79 -63 144 -2 139 69 206 208
195 35 -2 75 -12 90 -21z m6873 -1 c58 -34 78 -76 78 -160 0 -139 -48 -188
-185 -188 -66 0 -86 4 -116 23 -46 28 -69 82 -69 163 0 132 67 193 202 185 33
-2 72 -12 90 -23z m-13399 -20 c44 -26 67 -76 67 -146 0 -118 -48 -167 -163
-167 -90 0 -130 19 -157 74 -37 78 -15 206 42 237 61 33 156 33 211 2z m6970
0 c44 -26 67 -75 67 -146 0 -70 -27 -130 -70 -152 -39 -20 -152 -20 -196 1
-67 32 -95 152 -55 241 28 60 81 85 169 78 29 -2 67 -12 85 -22z m6877 2 c63
-33 90 -156 51 -241 -24 -54 -68 -74 -158 -74 -116 0 -163 48 -163 165 0 60
17 112 43 134 51 42 161 50 227 16z m-13409 -20 c39 -21 63 -83 56 -151 -7
-67 -27 -101 -72 -120 -74 -31 -189 -3 -213 51 -32 69 -22 163 21 203 43 40
145 49 208 17z m6961 4 c43 -17 72 -87 65 -156 -3 -30 -13 -66 -22 -80 -42
-63 -183 -72 -240 -15 -52 52 -57 165 -9 221 39 47 129 60 206 30z m6885 -5
c41 -26 58 -64 58 -129 -1 -108 -47 -155 -152 -155 -97 0 -153 56 -153 153 0
83 33 130 105 148 39 10 114 1 142 -17z m-6416 -32 c25 -28 29 -40 29 -95 0
-72 -16 -102 -66 -123 -78 -33 -162 -7 -188 57 -20 50 -20 78 0 129 22 55 54
71 133 67 57 -3 67 -6 92 -35z m-8304 -449 c97 -50 125 -240 47 -332 -37 -44
-98 -64 -187 -60 -122 7 -176 58 -185 178 -8 119 30 196 113 227 54 19 161 13
212 -13z m6927 16 c81 -23 124 -80 133 -178 14 -149 -61 -230 -211 -231 -85 0
-140 24 -176 77 -22 32 -25 47 -25 127 0 100 15 140 66 178 47 35 141 47 213
27z m6925 -19 c69 -39 103 -140 81 -244 -21 -102 -82 -145 -205 -146 -142 0
-205 62 -205 203 0 116 32 171 117 203 56 21 160 13 212 -16z m-13412 -17 c53
-28 77 -81 77 -168 0 -89 -21 -131 -84 -162 -73 -38 -184 -28 -239 21 -72 64
-67 242 8 295 61 44 169 50 238 14z m6928 16 c62 -16 101 -58 115 -124 33
-159 -46 -254 -203 -242 -73 5 -103 20 -141 70 -30 41 -35 150 -8 210 36 81
126 114 237 86z m6917 -16 c57 -33 73 -66 76 -156 2 -65 -1 -89 -16 -117 -57
-107 -278 -107 -334 0 -24 47 -25 162 0 209 20 41 57 70 103 82 49 12 135 3
171 -18z m-13401 -19 c40 -20 61 -61 67 -129 6 -80 -21 -145 -70 -171 -44 -24
-151 -24 -195 -1 -89 47 -98 238 -15 293 52 34 154 38 213 8z m6975 -5 c88
-53 83 -248 -8 -295 -47 -25 -154 -24 -197 1 -47 28 -71 77 -71 148 0 67 21
121 57 144 54 36 162 36 219 2z m6869 5 c49 -23 70 -68 70 -149 0 -119 -48
-169 -165 -169 -120 -1 -170 49 -170 169 0 101 30 145 115 166 38 10 111 1
150 -17z m-6449 -9 c62 -25 92 -132 60 -209 -23 -56 -59 -76 -135 -76 -36 0
-77 6 -90 13 -92 47 -92 224 0 270 42 21 118 22 165 2z m6879 1 c46 -20 68
-65 68 -144 0 -69 -18 -106 -64 -129 -33 -17 -144 -16 -178 2 -82 42 -81 215
1 265 40 24 122 27 173 6z m-421 -514 c52 -31 70 -66 74 -146 8 -142 -49 -205
-183 -206 -126 0 -188 62 -188 190 0 75 18 118 65 153 52 39 172 44 232 9z
m436 -11 c53 -28 75 -73 74 -152 0 -78 -22 -123 -74 -150 -46 -25 -132 -25
-187 0 -56 26 -76 66 -76 152 0 80 22 126 73 151 48 24 144 24 190 -1z
m-14328 -492 c98 -21 145 -100 135 -226 -8 -104 -51 -155 -147 -174 -42 -9
-69 -9 -113 0 -103 22 -147 82 -147 200 0 114 51 182 149 202 54 10 65 10 123
-2z m13898 -18 c56 -28 85 -90 84 -181 0 -92 -21 -141 -77 -178 -36 -24 -50
-27 -121 -27 -148 1 -210 61 -210 205 0 81 13 117 58 159 54 51 189 62 266 22z
m450 -22 c57 -32 75 -71 75 -159 0 -131 -55 -183 -191 -183 -80 0 -139 25
-167 72 -36 61 -30 188 11 235 38 43 74 56 156 56 61 0 86 -5 116 -21z m-478
-489 c21 -6 51 -22 68 -37 51 -42 64 -78 65 -173 0 -72 -4 -92 -25 -128 -40
-70 -77 -87 -195 -87 -87 0 -105 3 -137 23 -58 36 -81 82 -86 173 -4 70 -2 85
21 131 27 55 64 85 121 99 47 11 126 10 168 -1z m-13379 -24 c70 -30 99 -86
99 -194 -1 -139 -61 -197 -207 -197 -123 0 -174 39 -197 148 -23 109 16 207
97 243 39 17 167 18 208 0z m13876 -15 c18 -13 42 -42 52 -65 21 -46 25 -139
9 -198 -19 -68 -101 -118 -195 -118 -140 0 -213 83 -203 229 6 84 29 127 84
159 34 20 50 22 129 20 76 -3 95 -7 124 -27z m-14310 -493 c42 -20 101 -93
101 -125 0 -23 15 -14 35 24 11 20 37 50 58 67 35 28 47 31 119 35 135 6 202
-36 229 -142 16 -65 6 -156 -23 -208 -34 -62 -90 -89 -186 -89 -101 0 -153 25
-196 93 l-30 49 -17 -38 c-20 -46 -72 -98 -114 -114 -73 -28 -217 -8 -269 38
-79 70 -90 278 -19 362 65 78 205 100 312 48z m13834 8 c44 -18 82 -59 103
-110 l18 -43 31 50 c42 71 94 97 194 97 151 0 214 -64 215 -215 1 -97 -24
-157 -81 -195 -31 -21 -50 -25 -122 -28 -108 -4 -160 19 -207 90 l-32 47 -13
-31 c-36 -86 -108 -130 -213 -130 -163 0 -239 79 -238 249 0 136 52 210 163
233 53 11 139 5 182 -14z m-18277 -362 c74 -25 76 -25 117 -9 56 23 192 31
254 16 26 -7 70 -24 98 -37 l49 -25 41 20 c108 54 228 52 342 -5 67 -34 72
-35 95 -20 13 8 52 23 88 32 90 23 166 14 257 -31 l72 -36 53 27 c104 53 279
42 357 -23 l33 -28 60 29 c114 56 273 44 362 -27 l29 -24 58 30 c111 57 257
46 353 -27 37 -29 46 -33 56 -21 7 8 36 26 66 41 100 49 228 35 322 -36 42
-32 53 -36 62 -25 6 8 35 25 63 40 42 21 65 25 131 25 92 0 150 -21 202 -71
l31 -30 52 35 c29 20 71 41 94 47 57 15 154 6 204 -19 38 -20 86 -67 95 -92 2
-7 20 4 40 23 58 54 103 72 188 72 93 0 156 -27 203 -90 l33 -42 27 37 c40 57
97 80 193 80 166 0 243 -88 232 -266 -9 -133 -74 -199 -208 -211 -88 -8 -145
11 -202 68 l-47 47 -25 -37 c-29 -41 -78 -76 -119 -87 -34 -8 -26 -17 31 -33
57 -16 117 -71 139 -129 27 -71 24 -212 -6 -275 -44 -91 -126 -133 -256 -131
-78 2 -128 20 -178 64 l-34 29 -29 -30 c-94 -99 -263 -114 -369 -33 l-45 34
-44 -34 c-101 -77 -243 -88 -350 -27 l-56 31 -49 -33 c-66 -46 -125 -61 -214
-55 -70 5 -115 19 -169 55 -26 17 -28 17 -50 -4 -47 -44 -117 -67 -208 -67
-77 -1 -92 2 -150 31 l-65 32 -40 -28 c-94 -67 -239 -78 -352 -26 l-57 26 -66
-33 c-61 -31 -71 -33 -170 -33 -89 0 -113 4 -157 23 l-52 24 -68 -34 c-64 -31
-73 -33 -178 -33 -92 1 -118 4 -158 22 l-47 22 -45 -24 c-96 -51 -236 -57
-345 -16 -53 20 -54 20 -85 1 -97 -60 -256 -65 -378 -13 -35 15 -40 15 -85 -5
-87 -39 -121 -45 -228 -40 -90 4 -111 9 -168 37 -95 46 -168 118 -211 204 -70
141 -68 282 5 423 l37 72 -28 59 c-35 70 -50 173 -38 262 26 186 165 327 359
365 53 10 173 -5 246 -30z m15407 -1681 c15 -21 23 -40 19 -44 -4 -4 -56 -39
-117 -78 l-110 -71 -22 25 c-13 15 -23 29 -23 33 1 8 211 172 221 172 3 0 18
-17 32 -37z m-15355 -298 c65 -20 123 -74 139 -130 6 -22 14 -68 18 -102 l7
-63 -65 0 -64 0 -6 60 c-10 110 -46 136 -204 146 -109 7 -248 -8 -291 -30 -34
-18 -52 -55 -59 -122 -13 -121 20 -190 103 -213 21 -7 118 -16 214 -21 331
-17 384 -57 385 -295 0 -145 -14 -203 -64 -255 -54 -57 -114 -72 -313 -77
-310 -9 -403 29 -443 182 -8 33 -15 83 -15 112 l0 53 64 0 63 0 6 -69 c7 -83
26 -125 70 -148 27 -15 59 -18 212 -18 268 0 290 16 290 207 0 172 -18 184
-305 198 -261 13 -321 34 -366 127 -25 50 -26 59 -22 180 4 137 13 169 66 225
28 31 98 57 182 69 88 12 337 2 398 -16z m4095 -5 c92 -35 128 -98 141 -247
l7 -83 -64 0 -64 0 -6 69 c-6 78 -26 123 -62 147 -69 45 -368 40 -464 -8 -83
-42 -86 -51 -89 -371 -3 -297 3 -362 41 -419 41 -62 80 -73 272 -75 268 -5
306 17 315 180 l5 92 64 3 63 3 -4 -103 c-6 -174 -58 -242 -208 -274 -104 -22
-423 -15 -491 10 -105 39 -160 121 -178 266 -14 106 -14 483 -1 574 12 79 50
158 92 188 78 55 213 78 428 73 119 -2 155 -7 203 -25z m945 6 c58 -19 115
-63 139 -109 31 -60 42 -175 42 -427 1 -276 -8 -362 -44 -436 -53 -109 -147
-138 -425 -132 -160 4 -193 8 -241 26 -66 26 -100 59 -131 127 -22 48 -23 60
-26 377 -4 357 2 413 53 490 30 44 102 84 177 98 84 15 393 5 456 -14z m940
-1 c101 -31 145 -92 158 -223 l7 -72 -65 0 -65 0 -6 60 c-10 110 -46 136 -204
146 -109 7 -248 -8 -291 -30 -37 -19 -52 -55 -59 -136 -10 -117 21 -176 106
-200 20 -6 115 -15 211 -20 334 -17 385 -57 385 -305 0 -68 -6 -138 -13 -163
-18 -61 -64 -107 -130 -134 -53 -20 -73 -22 -267 -23 -222 0 -263 6 -326 47
-52 35 -88 116 -96 216 l-6 82 65 0 65 0 7 -71 c14 -149 40 -164 286 -164 265
0 285 15 285 201 0 179 -17 190 -300 204 -240 12 -295 27 -349 90 -38 46 -49
100 -44 230 4 93 9 123 26 157 37 71 101 107 222 124 87 12 337 2 398 -16z
m6042 15 c126 -20 189 -68 228 -172 21 -56 30 -602 12 -705 -15 -88 -51 -157
-98 -187 -71 -46 -104 -51 -327 -51 -243 0 -290 10 -356 76 -66 66 -72 102
-77 443 -4 334 3 404 48 483 24 41 40 57 84 78 31 15 79 31 108 35 80 11 304
11 378 0z m5508 -15 c103 -32 152 -114 152 -257 l0 -78 -59 0 -58 0 -5 63 c-8
93 -29 134 -81 157 -57 26 -179 34 -301 21 -128 -13 -182 -39 -213 -101 -22
-43 -23 -54 -23 -324 0 -229 3 -290 16 -338 33 -116 99 -142 347 -136 227 5
258 26 267 183 l5 90 64 3 63 3 -4 -104 c-8 -238 -98 -293 -468 -284 -141 3
-196 8 -231 21 -100 37 -160 121 -179 251 -12 89 -13 522 0 598 32 198 161
261 515 252 92 -2 158 -9 193 -20z m-16538 -40 l0 -55 -290 0 -290 0 0 -190 0
-190 280 0 280 0 0 -50 0 -50 -280 0 -280 0 0 -205 0 -205 290 0 290 0 0 -55
0 -55 -355 0 -355 0 0 555 0 555 355 0 355 0 0 -55z m828 32 c69 -26 99 -53
129 -115 26 -54 28 -65 28 -187 0 -119 -2 -134 -25 -180 -26 -53 -74 -92 -124
-102 -28 -6 -27 -6 18 -24 61 -23 75 -35 97 -84 16 -34 19 -68 19 -217 l0
-178 -59 0 -59 0 -4 158 c-4 173 -15 216 -71 256 -27 20 -44 21 -273 24 l-244
3 0 -220 0 -221 -65 0 -65 0 0 556 0 555 328 -3 c276 -3 334 -7 370 -21z m399
-130 c161 -477 297 -857 303 -850 4 4 73 204 154 443 81 239 158 463 169 498
l22 62 69 0 c53 0 67 -3 63 -13 -10 -26 -350 -982 -369 -1039 l-20 -58 -92 0
-91 0 -87 243 c-48 133 -136 381 -197 551 -61 170 -111 311 -111 313 0 1 30 3
68 3 l67 0 52 -153z m1013 -402 l0 -555 -65 0 -65 0 0 555 0 555 65 0 65 0 0
-555z m4301 524 c70 -33 120 -82 152 -151 41 -87 49 -163 45 -420 -4 -212 -6
-238 -26 -289 -29 -74 -72 -132 -121 -164 -76 -51 -109 -55 -453 -55 l-318 0
0 556 0 555 333 -3 332 -3 56 -26z m1029 -24 l0 -55 -295 0 -295 0 0 -190 0
-190 280 0 280 0 0 -50 0 -50 -277 -2 -278 -3 -3 -202 -2 -203 295 0 295 0 0
-55 0 -55 -355 0 -355 0 0 555 0 555 355 0 355 0 0 -55z m800 -500 l0 -555
-65 0 -65 0 0 555 0 555 65 0 65 0 0 -555z m434 437 c38 -64 153 -252 256
-417 103 -165 211 -340 241 -390 l54 -90 3 508 2 507 60 0 60 0 0 -555 0 -555
-103 0 -103 0 -309 501 -310 502 -3 -502 -2 -501 -65 0 -65 0 0 555 0 555 108
0 107 -1 69 -117z m1516 63 l0 -55 -277 -2 -278 -3 0 -190 0 -190 268 -3 267
-2 0 -50 0 -50 -267 -2 -268 -3 -3 -252 -2 -253 -60 0 -60 0 0 555 0 555 340
0 340 0 0 -55z m1735 44 c73 -13 125 -39 158 -78 43 -51 52 -95 52 -241 0
-121 -2 -140 -23 -182 -24 -48 -64 -81 -116 -94 -28 -7 -28 -7 25 -33 95 -47
107 -83 108 -323 l1 -148 -64 0 -64 0 -4 163 c-3 134 -6 169 -22 200 -33 68
-50 72 -323 75 l-243 3 0 -220 0 -221 -60 0 -60 0 0 555 0 555 288 0 c166 0
313 -5 347 -11z m605 -59 c15 -36 101 -244 190 -462 90 -219 166 -398 169
-398 3 0 92 208 197 463 l192 462 111 3 111 3 0 -556 0 -555 -65 0 -65 0 -2
499 -3 498 -205 -499 -205 -499 -65 3 -65 3 -76 185 c-43 102 -136 327 -208
500 l-130 315 -1 -502 0 -503 -65 0 -65 0 0 555 0 556 112 -3 111 -3 27 -65z
m1861 -470 c110 -294 201 -543 205 -552 5 -16 -2 -18 -60 -18 l-65 0 -19 53
c-11 28 -30 80 -42 115 l-23 62 -281 0 -281 0 -40 -115 -40 -115 -67 0 c-38 0
-68 2 -68 4 0 2 86 240 191 528 105 287 196 536 201 551 l10 28 91 -3 90 -3
198 -535z m929 485 l0 -55 -180 0 -180 0 0 -500 0 -500 -60 0 -60 0 -2 498 -3
497 -177 3 -178 2 0 55 0 55 420 0 420 0 0 -55z m230 -500 l0 -555 -60 0 -60
0 0 555 0 555 60 0 60 0 0 -555z m1687 468 c17 -49 107 -290 198 -538 92 -247
170 -458 172 -467 5 -16 -3 -18 -60 -18 l-64 0 -40 113 -40 112 -283 0 -283 0
-40 -112 -41 -113 -69 0 c-62 0 -68 2 -62 18 6 15 233 635 353 965 l46 127 91
0 90 0 32 -87z m-14487 -1128 c0 -14 -106 -155 -116 -155 -6 0 -22 8 -34 18
l-21 17 46 82 47 82 39 -19 c21 -11 39 -23 39 -25z"/>
<path d="M11215 7251 c-22 -21 -49 -43 -60 -49 -19 -11 -19 -13 -3 -22 9 -6
38 -26 62 -45 l46 -35 44 31 c24 18 66 37 93 44 l48 12 -35 8 c-48 10 -89 32
-125 66 l-30 28 -40 -38z"/>
<path d="M10800 7251 c0 -5 -16 -19 -35 -32 -19 -13 -35 -27 -35 -30 0 -3 17
-19 38 -36 l38 -31 52 32 c51 31 64 46 39 46 -7 0 -28 13 -47 30 -36 30 -50
36 -50 21z"/>
<path d="M10331 7210 c-19 -16 -21 -23 -11 -35 21 -25 49 -28 75 -7 l24 19
-29 22 c-35 25 -29 25 -59 1z"/>
<path d="M9893 7188 c2 -7 10 -13 17 -13 7 0 15 6 18 13 2 7 -5 12 -18 12 -13
0 -20 -5 -17 -12z"/>
<path d="M12128 6189 c-12 -16 -39 -41 -60 -55 l-38 -27 43 -27 c23 -15 51
-37 61 -49 l20 -21 32 31 c18 17 56 40 85 49 l53 18 -44 13 c-26 8 -63 31 -88
55 l-43 42 -21 -29z"/>
<path d="M12112 5604 c-43 -43 -43 -43 -20 -55 13 -6 32 -20 44 -30 20 -19 21
-19 45 -1 13 11 37 26 53 34 l30 15 -25 13 c-13 7 -37 25 -54 40 l-30 27 -43
-43z"/>
<path d="M12128 5056 l-27 -24 23 -21 c28 -26 30 -26 66 1 l29 21 -31 24 c-18
12 -32 23 -32 23 -1 0 -13 -11 -28 -24z"/>
<path d="M12144 4499 c-3 -6 -2 -15 2 -19 12 -12 38 5 30 19 -9 14 -23 14 -32
0z"/>
<path d="M4245 7251 c-22 -21 -49 -43 -60 -49 -19 -11 -19 -13 -3 -22 9 -6 38
-26 62 -45 l46 -35 44 31 c24 18 66 37 93 44 l48 12 -35 8 c-48 10 -89 32
-125 66 l-30 28 -40 -38z"/>
<path d="M3806 7230 c-16 -17 -33 -30 -38 -30 -18 0 -6 -18 31 -48 l39 -32 51
33 c50 32 62 47 38 47 -7 0 -28 13 -47 30 -19 16 -37 29 -40 29 -3 0 -18 -13
-34 -29z"/>
<path d="M3360 7209 l-24 -21 24 -19 c31 -23 36 -23 65 0 l24 18 -29 22 c-35
25 -29 25 -60 0z"/>
<path d="M5607 5644 c-10 -13 -36 -36 -58 -51 l-39 -26 48 -32 c26 -18 53 -40
61 -49 12 -14 17 -12 54 19 23 20 61 41 85 48 l44 13 -42 13 c-23 7 -61 30
-85 52 -23 21 -44 39 -46 39 -2 0 -12 -12 -22 -26z"/>
<path d="M5144 5604 l-41 -42 41 -29 41 -29 53 32 c52 32 53 33 30 44 -13 7
-36 25 -53 40 l-30 27 -41 -43z"/>
<path d="M4711 5596 c-27 -28 -26 -32 3 -51 22 -15 26 -14 54 3 l31 18 -33 26
-34 27 -21 -23z"/>
<path d="M4272 5581 c-10 -6 -10 -10 3 -21 18 -15 42 0 31 19 -8 13 -16 14
-34 2z"/>
<path d="M18104 7259 c-16 -17 -44 -40 -63 -51 l-34 -21 34 -18 c19 -9 47 -31
63 -48 l29 -30 38 31 c21 17 61 39 89 48 l51 17 -46 13 c-25 7 -65 30 -89 51
l-43 38 -29 -30z"/>
<path d="M17643 7223 l-42 -36 41 -32 40 -32 54 31 c44 26 50 33 37 41 -9 6
-31 22 -48 38 -18 15 -34 27 -36 26 -2 0 -23 -16 -46 -36z"/>
<path d="M17209 7209 l-24 -18 24 -25 23 -25 29 21 c16 12 29 24 29 27 0 3
-13 13 -29 22 -26 15 -30 15 -52 -2z"/>
<path d="M20795 4021 c-17 -19 -45 -43 -63 -54 l-33 -20 43 -24 c24 -13 55
-36 71 -51 15 -14 27 -21 27 -14 0 16 80 69 121 80 29 8 31 10 14 17 -67 24
-83 33 -115 65 l-35 35 -30 -34z"/>
<path d="M20338 3985 c-21 -20 -38 -37 -38 -38 0 -2 20 -18 44 -35 27 -20 47
-28 51 -22 4 6 27 21 51 33 l45 23 -53 34 c-29 19 -55 36 -58 37 -3 1 -22 -13
-42 -32z"/>
<path d="M19902 3977 c-28 -30 -28 -32 6 -55 l27 -20 29 23 29 23 -29 26 c-36
31 -36 31 -62 3z"/>
<path d="M19470 3956 c0 -21 16 -28 29 -12 9 11 8 15 -5 20 -22 8 -24 8 -24
-8z"/>
<path d="M6970 4053 c0 -15 -67 -81 -90 -88 -28 -9 -25 -18 13 -39 17 -10 46
-32 63 -48 l30 -28 25 26 c26 29 89 64 114 64 8 0 15 5 15 10 0 6 -7 10 -15
10 -26 0 -78 30 -117 68 -21 20 -38 31 -38 25z"/>
<path d="M6489 3982 l-37 -37 43 -32 c43 -32 44 -32 67 -14 12 10 36 25 51 33
l28 14 -53 34 c-29 19 -55 36 -58 37 -3 2 -21 -14 -41 -35z"/>
<path d="M6050 3973 l-24 -24 29 -23 29 -23 33 21 33 21 -33 27 c-17 15 -34
27 -37 27 -3 -1 -16 -12 -30 -26z"/>
<path d="M5624 3959 c-3 -6 -2 -15 2 -19 12 -12 38 5 30 19 -9 14 -23 14 -32
0z"/>
<path d="M7559 2541 c-146 -27 -164 -84 -156 -500 3 -176 8 -268 18 -294 30
-87 104 -111 328 -105 125 3 152 7 187 26 74 38 78 61 82 397 4 315 -2 375
-44 425 -14 16 -42 34 -62 40 -47 15 -293 22 -353 11z"/>
<path d="M14615 2541 c-71 -12 -109 -34 -131 -78 -17 -35 -19 -65 -19 -373 0
-318 1 -337 20 -370 38 -65 75 -75 280 -75 209 0 244 10 280 81 18 36 20 63
23 339 2 196 0 318 -8 351 -12 55 -44 95 -95 114 -37 15 -281 22 -350 11z"/>
<path d="M4180 2315 l0 -227 238 4 c213 3 241 5 277 23 66 34 80 70 80 212 0
108 -2 125 -21 150 -40 54 -57 58 -326 61 l-248 4 0 -227z"/>
<path d="M9867 2533 c-4 -3 -7 -204 -7 -445 l0 -438 238 0 c143 0 253 5 277
11 59 17 119 82 140 152 14 47 16 96 13 299 -3 238 -4 244 -29 299 -30 63 -74
101 -134 118 -43 12 -487 16 -498 4z"/>
<path d="M15460 2315 l0 -227 238 4 c213 3 241 5 276 23 70 35 81 60 84 194 5
142 -7 178 -64 207 -35 17 -66 19 -286 22 l-248 4 0 -227z"/>
<path d="M18145 2519 c-2 -8 -56 -153 -119 -324 l-114 -310 125 -3 c68 -1 177
-1 242 0 l119 3 -119 319 c-66 176 -121 322 -124 324 -2 3 -7 -1 -10 -9z"/>
<path d="M21152 2503 c-5 -15 -58 -158 -116 -317 -58 -159 -106 -293 -106
-297 0 -5 108 -9 241 -9 189 0 240 3 236 13 -2 6 -55 149 -117 317 -63 168
-117 309 -121 313 -3 5 -11 -4 -17 -20z"/>
</g>
</svg>
